<?xml version="1.0" encoding="UTF-8"?>
<svg id="Layer_1" data-name="Layer 1" xmlns="http://www.w3.org/2000/svg" viewBox="0 0 1920 1920">
  <defs>
    <style>
      .cls-1 {
        fill: #6fe0b0;
      }

      .cls-1, .cls-2 {
        stroke-width: 0px;
      }

      .cls-2 {
        fill: #fff;
      }
    </style>
  </defs>
  <path class="cls-1" d="M1301.76,1920H0V0h1920v1920h-618.24M1235.01,1539.81c71.79-47.84,120.88-112.67,145.96-195.39,8.84-29.17,13.67-59.09,15.82-89.46,1.74-24.6,1.95-49.22-1.31-73.68-7.76-58.14-33.05-108.1-72.23-151.29-35.83-39.51-78.99-69.3-126-93.75-64.39-33.5-132.93-55.43-203.28-72.25-35.28-8.43-70.67-16.5-105.62-26.12-33.98-9.36-66.82-22.1-96.94-40.86-60.58-37.73-87.06-92.42-79.84-163.19,3.25-31.87,16.76-59.41,38.49-82.98,22.51-24.42,50.12-40.92,80.85-52.68,36.33-13.9,74.27-18.48,112.8-18.97,14.3-.18,28.7.48,42.91,2.05,58.77,6.49,111.66,27.89,158.51,64.02,40.43,31.18,72.4,69.82,99.3,112.91,1.07,1.72,2.2,3.4,3.48,5.36,1.32-1.15,2.31-1.91,3.19-2.78,44.2-43.59,88.36-87.21,132.63-130.73,2.68-2.63,2.83-4.52.94-7.73-48.1-81.32-115.87-140.21-202.45-177.63-69.27-29.95-142.22-41.55-217.13-43.06-11.48-.23-22.98.37-34.46.84-13.2.55-26.45.87-39.59,2.18-37.17,3.71-73.62,11.1-109.18,22.68-72.92,23.75-136.9,61.58-187.76,119.78-48.25,55.22-76.26,119.24-81.23,192.65-1.17,17.29-.12,34.8.88,52.16.82,14.28,2.52,28.56,4.79,42.69,6.99,43.4,21.23,84.24,44.61,121.66,31.76,50.83,75.04,89.5,126.77,118.94,67.5,38.42,141.02,59.89,216.61,74.93,39.08,7.77,77.97,16.05,115.7,29.06,37.51,12.93,73.45,29.07,105.63,52.68,27.93,20.49,50.39,45.45,62,78.68,12.24,35.05,15.17,70.6,2.45,106.22-10.48,29.33-30.29,51.73-54.93,69.92-49.64,36.63-106.78,50.91-167.22,54.1-17.02.9-34.17-.02-51.23-.9-12.56-.65-25.12-2.16-37.57-4.01-74.41-11.04-138.05-43.58-192.05-95.81-35.91-34.73-67.42-73.1-96.59-113.51-2.79-3.87-5.56-7.75-8.67-12.09-1.75,1.86-3.19,3.3-4.52,4.83-42.65,48.98-85.27,98-128.01,146.9-2.56,2.93-2.3,4.84-.23,7.77,18.75,26.58,39.06,51.87,61.49,75.45,50.11,52.69,107.76,94.65,174.89,123.19,46.49,19.77,94.86,32.76,144.89,39.23,23.2,3,46.55,5.55,69.91,6.45,24.23.93,48.55-.24,72.83-.79,10.35-.23,20.76-.65,31.01-1.97,19.14-2.46,38.29-5.08,57.26-8.6,61.16-11.37,118.59-32.5,171.44-67.11Z"/>
  <path class="cls-2" d="M1234.72,1539.99c-52.56,34.42-109.99,55.56-171.15,66.92-18.97,3.52-38.12,6.15-57.26,8.6-10.26,1.32-20.66,1.73-31.01,1.97-24.27.55-48.6,1.72-72.83.79-23.35-.9-46.71-3.45-69.91-6.45-50.04-6.47-98.4-19.46-144.89-39.23-67.13-28.54-124.78-70.5-174.89-123.19-22.43-23.58-42.74-48.87-61.49-75.45-2.07-2.93-2.33-4.84.23-7.77,42.74-48.9,85.36-97.92,128.01-146.9,1.33-1.53,2.77-2.97,4.52-4.83,3.12,4.35,5.88,8.23,8.67,12.09,29.17,40.41,60.68,78.78,96.59,113.51,53.99,52.23,117.64,84.77,192.05,95.81,12.45,1.85,25.01,3.36,37.57,4.01,17.05.88,34.21,1.79,51.23.9,60.45-3.19,117.58-17.47,167.22-54.1,24.64-18.18,44.46-40.58,54.93-69.92,12.73-35.63,9.8-71.17-2.45-106.22-11.61-33.23-34.07-58.19-62-78.68-32.18-23.61-68.12-39.75-105.63-52.68-37.73-13.01-76.62-21.28-115.7-29.06-75.59-15.03-149.11-36.5-216.61-74.93-51.73-29.44-95.01-68.11-126.77-118.94-23.38-37.43-37.62-78.27-44.61-121.66-2.28-14.13-3.98-28.41-4.79-42.69-1-17.35-2.04-34.86-.88-52.16,4.96-73.41,32.97-137.43,81.23-192.65,50.86-58.21,114.84-96.03,187.76-119.78,35.56-11.58,72.01-18.97,109.18-22.68,13.14-1.31,26.38-1.64,39.59-2.18,11.48-.47,22.98-1.07,34.46-.84,74.91,1.51,147.86,13.11,217.13,43.06,86.58,37.43,154.35,96.31,202.45,177.63,1.9,3.21,1.74,5.09-.94,7.73-44.27,43.52-88.43,87.14-132.63,130.73-.88.87-1.87,1.64-3.19,2.78-1.27-1.96-2.41-3.64-3.48-5.36-26.9-43.09-58.87-81.73-99.3-112.91-46.85-36.13-99.74-57.53-158.51-64.02-14.21-1.57-28.61-2.24-42.91-2.05-38.53.49-76.47,5.07-112.8,18.97-30.74,11.76-58.34,28.26-80.85,52.68-21.73,23.57-35.24,51.11-38.49,82.98-7.21,70.76,19.26,125.46,79.84,163.19,30.12,18.76,62.96,31.5,96.94,40.86,34.95,9.63,70.35,17.69,105.62,26.12,70.36,16.82,138.89,38.75,203.28,72.25,47.01,24.46,90.17,54.25,126,93.75,39.18,43.19,64.46,93.14,72.23,151.29,3.26,24.45,3.05,49.08,1.31,73.68-2.15,30.37-6.98,60.28-15.82,89.46-25.07,82.73-74.16,147.55-146.25,195.58Z"/>
</svg>