<svg id="visual" viewBox="0 0 900 450" width="900" height="450" xmlns="http://www.w3.org/2000/svg" xmlns:xlink="http://www.w3.org/1999/xlink" version="1.1"><path d="M0 207L21.5 202.7C43 198.3 86 189.7 128.8 189C171.7 188.3 214.3 195.7 257.2 184.7C300 173.7 343 144.3 385.8 139.2C428.7 134 471.3 153 514.2 164.5C557 176 600 180 642.8 174.3C685.7 168.7 728.3 153.3 771.2 148.8C814 144.3 857 150.7 878.5 153.8L900 157L900 0L878.5 0C857 0 814 0 771.2 0C728.3 0 685.7 0 642.8 0C600 0 557 0 514.2 0C471.3 0 428.7 0 385.8 0C343 0 300 0 257.2 0C214.3 0 171.7 0 128.8 0C86 0 43 0 21.5 0L0 0Z" fill="#e1ffe9"></path><path d="M0 166L21.5 162.5C43 159 86 152 128.8 150.2C171.7 148.3 214.3 151.7 257.2 141C300 130.3 343 105.7 385.8 96.8C428.7 88 471.3 95 514.2 103.7C557 112.3 600 122.7 642.8 126.5C685.7 130.3 728.3 127.7 771.2 121C814 114.3 857 103.7 878.5 98.3L900 93L900 0L878.5 0C857 0 814 0 771.2 0C728.3 0 685.7 0 642.8 0C600 0 557 0 514.2 0C471.3 0 428.7 0 385.8 0C343 0 300 0 257.2 0C214.3 0 171.7 0 128.8 0C86 0 43 0 21.5 0L0 0Z" fill="#c6f7d5"></path><path d="M0 65L21.5 63C43 61 86 57 128.8 66.5C171.7 76 214.3 99 257.2 111.5C300 124 343 126 385.8 122.8C428.7 119.7 471.3 111.3 514.2 100.3C557 89.3 600 75.7 642.8 81.3C685.7 87 728.3 112 771.2 110.7C814 109.3 857 81.7 878.5 67.8L900 54L900 0L878.5 0C857 0 814 0 771.2 0C728.3 0 685.7 0 642.8 0C600 0 557 0 514.2 0C471.3 0 428.7 0 385.8 0C343 0 300 0 257.2 0C214.3 0 171.7 0 128.8 0C86 0 43 0 21.5 0L0 0Z" fill="#aaeec2"></path><path d="M0 48L21.5 53C43 58 86 68 128.8 72C171.7 76 214.3 74 257.2 71.5C300 69 343 66 385.8 70.8C428.7 75.7 471.3 88.3 514.2 89.7C557 91 600 81 642.8 71C685.7 61 728.3 51 771.2 50.8C814 50.7 857 60.3 878.5 65.2L900 70L900 0L878.5 0C857 0 814 0 771.2 0C728.3 0 685.7 0 642.8 0C600 0 557 0 514.2 0C471.3 0 428.7 0 385.8 0C343 0 300 0 257.2 0C214.3 0 171.7 0 128.8 0C86 0 43 0 21.5 0L0 0Z" fill="#8ce5b0"></path><path d="M0 23L21.5 23.2C43 23.3 86 23.7 128.8 27.7C171.7 31.7 214.3 39.3 257.2 43.3C300 47.3 343 47.7 385.8 44.2C428.7 40.7 471.3 33.3 514.2 34C557 34.7 600 43.3 642.8 48.8C685.7 54.3 728.3 56.7 771.2 52.5C814 48.3 857 37.7 878.5 32.3L900 27L900 0L878.5 0C857 0 814 0 771.2 0C728.3 0 685.7 0 642.8 0C600 0 557 0 514.2 0C471.3 0 428.7 0 385.8 0C343 0 300 0 257.2 0C214.3 0 171.7 0 128.8 0C86 0 43 0 21.5 0L0 0Z" fill="#69dc9e"></path></svg>