<svg id="visual" viewBox="0 0 1645 411" width="1645" height="411" xmlns="http://www.w3.org/2000/svg" xmlns:xlink="http://www.w3.org/1999/xlink" version="1.1"><path d="M0 198L22.8 191C45.7 184 91.3 170 137 158.5C182.7 147 228.3 138 274 137C319.7 136 365.3 143 411 153.2C456.7 163.3 502.3 176.7 548 175C593.7 173.3 639.3 156.7 685.2 145.7C731 134.7 777 129.3 822.8 137.2C868.7 145 914.3 166 960 168.3C1005.7 170.7 1051.3 154.3 1097 145.5C1142.7 136.7 1188.3 135.3 1234 145.7C1279.7 156 1325.3 178 1371 175C1416.7 172 1462.3 144 1508 142.2C1553.7 140.3 1599.3 164.7 1622.2 176.8L1645 189L1645 0L1622.2 0C1599.3 0 1553.7 0 1508 0C1462.3 0 1416.7 0 1371 0C1325.3 0 1279.7 0 1234 0C1188.3 0 1142.7 0 1097 0C1051.3 0 1005.7 0 960 0C914.3 0 868.7 0 822.8 0C777 0 731 0 685.2 0C639.3 0 593.7 0 548 0C502.3 0 456.7 0 411 0C365.3 0 319.7 0 274 0C228.3 0 182.7 0 137 0C91.3 0 45.7 0 22.8 0L0 0Z" fill="#bcf7cb"></path><path d="M0 129L22.8 125.7C45.7 122.3 91.3 115.7 137 115.5C182.7 115.3 228.3 121.7 274 129.3C319.7 137 365.3 146 411 140.7C456.7 135.3 502.3 115.7 548 107C593.7 98.3 639.3 100.7 685.2 101.2C731 101.7 777 100.3 822.8 100.7C868.7 101 914.3 103 960 109.8C1005.7 116.7 1051.3 128.3 1097 137C1142.7 145.7 1188.3 151.3 1234 146.5C1279.7 141.7 1325.3 126.3 1371 120.7C1416.7 115 1462.3 119 1508 122C1553.7 125 1599.3 127 1622.2 128L1645 129L1645 0L1622.2 0C1599.3 0 1553.7 0 1508 0C1462.3 0 1416.7 0 1371 0C1325.3 0 1279.7 0 1234 0C1188.3 0 1142.7 0 1097 0C1051.3 0 1005.7 0 960 0C914.3 0 868.7 0 822.8 0C777 0 731 0 685.2 0C639.3 0 593.7 0 548 0C502.3 0 456.7 0 411 0C365.3 0 319.7 0 274 0C228.3 0 182.7 0 137 0C91.3 0 45.7 0 22.8 0L0 0Z" fill="#a3eebb"></path><path d="M0 111L22.8 106.3C45.7 101.7 91.3 92.3 137 83.2C182.7 74 228.3 65 274 67.2C319.7 69.3 365.3 82.7 411 87.2C456.7 91.7 502.3 87.3 548 85.8C593.7 84.3 639.3 85.7 685.2 88.5C731 91.3 777 95.7 822.8 98C868.7 100.3 914.3 100.7 960 101C1005.7 101.3 1051.3 101.7 1097 96.3C1142.7 91 1188.3 80 1234 76.7C1279.7 73.3 1325.3 77.7 1371 82.5C1416.7 87.3 1462.3 92.7 1508 96C1553.7 99.3 1599.3 100.7 1622.2 101.3L1645 102L1645 0L1622.2 0C1599.3 0 1553.7 0 1508 0C1462.3 0 1416.7 0 1371 0C1325.3 0 1279.7 0 1234 0C1188.3 0 1142.7 0 1097 0C1051.3 0 1005.7 0 960 0C914.3 0 868.7 0 822.8 0C777 0 731 0 685.2 0C639.3 0 593.7 0 548 0C502.3 0 456.7 0 411 0C365.3 0 319.7 0 274 0C228.3 0 182.7 0 137 0C91.3 0 45.7 0 22.8 0L0 0Z" fill="#88e5ac"></path><path d="M0 37L22.8 36.3C45.7 35.7 91.3 34.3 137 39.2C182.7 44 228.3 55 274 58.5C319.7 62 365.3 58 411 51.2C456.7 44.3 502.3 34.7 548 31.7C593.7 28.7 639.3 32.3 685.2 32.8C731 33.3 777 30.7 822.8 35.8C868.7 41 914.3 54 960 58.3C1005.7 62.7 1051.3 58.3 1097 55.7C1142.7 53 1188.3 52 1234 50.2C1279.7 48.3 1325.3 45.7 1371 47.8C1416.7 50 1462.3 57 1508 60.2C1553.7 63.3 1599.3 62.7 1622.2 62.3L1645 62L1645 0L1622.2 0C1599.3 0 1553.7 0 1508 0C1462.3 0 1416.7 0 1371 0C1325.3 0 1279.7 0 1234 0C1188.3 0 1142.7 0 1097 0C1051.3 0 1005.7 0 960 0C914.3 0 868.7 0 822.8 0C777 0 731 0 685.2 0C639.3 0 593.7 0 548 0C502.3 0 456.7 0 411 0C365.3 0 319.7 0 274 0C228.3 0 182.7 0 137 0C91.3 0 45.7 0 22.8 0L0 0Z" fill="#69dc9e"></path></svg>