<svg id="visual" viewBox="0 0 960 540" width="960" height="540" xmlns="http://www.w3.org/2000/svg" xmlns:xlink="http://www.w3.org/1999/xlink" version="1.1"><path d="M0 402L32 404.5C64 407 128 412 192 411.5C256 411 320 405 384 406.2C448 407.3 512 415.7 576 413.2C640 410.7 704 397.3 768 385C832 372.7 896 361.3 928 355.7L960 350L960 0L928 0C896 0 832 0 768 0C704 0 640 0 576 0C512 0 448 0 384 0C320 0 256 0 192 0C128 0 64 0 32 0L0 0Z" fill="#69dc9e"></path><path d="M0 351L32 338.2C64 325.3 128 299.7 192 283.5C256 267.3 320 260.7 384 263.3C448 266 512 278 576 283.7C640 289.3 704 288.7 768 290.5C832 292.3 896 296.7 928 298.8L960 301L960 0L928 0C896 0 832 0 768 0C704 0 640 0 576 0C512 0 448 0 384 0C320 0 256 0 192 0C128 0 64 0 32 0L0 0Z" fill="#81e3a8"></path><path d="M0 176L32 183.7C64 191.3 128 206.7 192 217.8C256 229 320 236 384 228.2C448 220.3 512 197.7 576 185.3C640 173 704 171 768 170.2C832 169.3 896 169.7 928 169.8L960 170L960 0L928 0C896 0 832 0 768 0C704 0 640 0 576 0C512 0 448 0 384 0C320 0 256 0 192 0C128 0 64 0 32 0L0 0Z" fill="#96eab3"></path><path d="M0 118L32 118.3C64 118.7 128 119.3 192 128.8C256 138.3 320 156.7 384 170.3C448 184 512 193 576 184.2C640 175.3 704 148.7 768 137.5C832 126.3 896 130.7 928 132.8L960 135L960 0L928 0C896 0 832 0 768 0C704 0 640 0 576 0C512 0 448 0 384 0C320 0 256 0 192 0C128 0 64 0 32 0L0 0Z" fill="#aaf1bf"></path><path d="M0 93L32 90.5C64 88 128 83 192 77.5C256 72 320 66 384 70.5C448 75 512 90 576 97.2C640 104.3 704 103.7 768 100.5C832 97.3 896 91.7 928 88.8L960 86L960 0L928 0C896 0 832 0 768 0C704 0 640 0 576 0C512 0 448 0 384 0C320 0 256 0 192 0C128 0 64 0 32 0L0 0Z" fill="#bcf7cb"></path></svg>