<svg id="visual" viewBox="0 0 900 600" width="900" height="600" xmlns="http://www.w3.org/2000/svg" xmlns:xlink="http://www.w3.org/1999/xlink" version="1.1"><path d="M0 352L21.5 360.5C43 369 86 386 128.8 396.2C171.7 406.3 214.3 409.7 257.2 403.3C300 397 343 381 385.8 370.8C428.7 360.7 471.3 356.3 514.2 362.7C557 369 600 386 642.8 394.5C685.7 403 728.3 403 771.2 396.7C814 390.3 857 377.7 878.5 371.3L900 365L900 601L878.5 601C857 601 814 601 771.2 601C728.3 601 685.7 601 642.8 601C600 601 557 601 514.2 601C471.3 601 428.7 601 385.8 601C343 601 300 601 257.2 601C214.3 601 171.7 601 128.8 601C86 601 43 601 21.5 601L0 601Z" fill="#e1e1e1"></path><path d="M0 397L21.5 405.5C43 414 86 431 128.8 430.3C171.7 429.7 214.3 411.3 257.2 406.2C300 401 343 409 385.8 409.5C428.7 410 471.3 403 514.2 408.2C557 413.3 600 430.7 642.8 433C685.7 435.3 728.3 422.7 771.2 417.7C814 412.7 857 415.3 878.5 416.7L900 418L900 601L878.5 601C857 601 814 601 771.2 601C728.3 601 685.7 601 642.8 601C600 601 557 601 514.2 601C471.3 601 428.7 601 385.8 601C343 601 300 601 257.2 601C214.3 601 171.7 601 128.8 601C86 601 43 601 21.5 601L0 601Z" fill="#c0c1c2"></path><path d="M0 485L21.5 478C43 471 86 457 128.8 445C171.7 433 214.3 423 257.2 428C300 433 343 453 385.8 465C428.7 477 471.3 481 514.2 475C557 469 600 453 642.8 445.8C685.7 438.7 728.3 440.3 771.2 444.8C814 449.3 857 456.7 878.5 460.3L900 464L900 601L878.5 601C857 601 814 601 771.2 601C728.3 601 685.7 601 642.8 601C600 601 557 601 514.2 601C471.3 601 428.7 601 385.8 601C343 601 300 601 257.2 601C214.3 601 171.7 601 128.8 601C86 601 43 601 21.5 601L0 601Z" fill="#a1a1a3"></path><path d="M0 463L21.5 467.8C43 472.7 86 482.3 128.8 490C171.7 497.7 214.3 503.3 257.2 502.2C300 501 343 493 385.8 485.3C428.7 477.7 471.3 470.3 514.2 466.8C557 463.3 600 463.7 642.8 471C685.7 478.3 728.3 492.7 771.2 493.5C814 494.3 857 481.7 878.5 475.3L900 469L900 601L878.5 601C857 601 814 601 771.2 601C728.3 601 685.7 601 642.8 601C600 601 557 601 514.2 601C471.3 601 428.7 601 385.8 601C343 601 300 601 257.2 601C214.3 601 171.7 601 128.8 601C86 601 43 601 21.5 601L0 601Z" fill="#828386"></path><path d="M0 517L21.5 515.3C43 513.7 86 510.3 128.8 506.3C171.7 502.3 214.3 497.7 257.2 494.2C300 490.7 343 488.3 385.8 490C428.7 491.7 471.3 497.3 514.2 503.2C557 509 600 515 642.8 518C685.7 521 728.3 521 771.2 520.3C814 519.7 857 518.3 878.5 517.7L900 517L900 601L878.5 601C857 601 814 601 771.2 601C728.3 601 685.7 601 642.8 601C600 601 557 601 514.2 601C471.3 601 428.7 601 385.8 601C343 601 300 601 257.2 601C214.3 601 171.7 601 128.8 601C86 601 43 601 21.5 601L0 601Z" fill="#65666a"></path><path d="M0 534L21.5 535C43 536 86 538 128.8 541.2C171.7 544.3 214.3 548.7 257.2 549.5C300 550.3 343 547.7 385.8 547.7C428.7 547.7 471.3 550.3 514.2 550C557 549.7 600 546.3 642.8 542.7C685.7 539 728.3 535 771.2 533.5C814 532 857 533 878.5 533.5L900 534L900 601L878.5 601C857 601 814 601 771.2 601C728.3 601 685.7 601 642.8 601C600 601 557 601 514.2 601C471.3 601 428.7 601 385.8 601C343 601 300 601 257.2 601C214.3 601 171.7 601 128.8 601C86 601 43 601 21.5 601L0 601Z" fill="#494b4f"></path><path d="M0 579L21.5 576C43 573 86 567 128.8 564.3C171.7 561.7 214.3 562.3 257.2 562.2C300 562 343 561 385.8 558.3C428.7 555.7 471.3 551.3 514.2 551.8C557 552.3 600 557.7 642.8 562.8C685.7 568 728.3 573 771.2 571.8C814 570.7 857 563.3 878.5 559.7L900 556L900 601L878.5 601C857 601 814 601 771.2 601C728.3 601 685.7 601 642.8 601C600 601 557 601 514.2 601C471.3 601 428.7 601 385.8 601C343 601 300 601 257.2 601C214.3 601 171.7 601 128.8 601C86 601 43 601 21.5 601L0 601Z" fill="#2f3136"></path></svg>