<svg id="visual" viewBox="0 0 960 540" width="960" height="540" xmlns="http://www.w3.org/2000/svg" xmlns:xlink="http://www.w3.org/1999/xlink" version="1.1"><path d="M0 151L22.8 161.8C45.7 172.7 91.3 194.3 137 192.3C182.7 190.3 228.3 164.7 274 153.2C319.7 141.7 365.3 144.3 411.2 151.2C457 158 503 169 548.8 174.3C594.7 179.7 640.3 179.3 686 186C731.7 192.7 777.3 206.3 823 211C868.7 215.7 914.3 211.3 937.2 209.2L960 207L960 0L937.2 0C914.3 0 868.7 0 823 0C777.3 0 731.7 0 686 0C640.3 0 594.7 0 548.8 0C503 0 457 0 411.2 0C365.3 0 319.7 0 274 0C228.3 0 182.7 0 137 0C91.3 0 45.7 0 22.8 0L0 0Z" fill="#ffffff"></path><path d="M0 109L22.8 115.3C45.7 121.7 91.3 134.3 137 146.3C182.7 158.3 228.3 169.7 274 169.8C319.7 170 365.3 159 411.2 150.8C457 142.7 503 137.3 548.8 131.7C594.7 126 640.3 120 686 128C731.7 136 777.3 158 823 165C868.7 172 914.3 164 937.2 160L960 156L960 0L937.2 0C914.3 0 868.7 0 823 0C777.3 0 731.7 0 686 0C640.3 0 594.7 0 548.8 0C503 0 457 0 411.2 0C365.3 0 319.7 0 274 0C228.3 0 182.7 0 137 0C91.3 0 45.7 0 22.8 0L0 0Z" fill="#ddf7e6"></path><path d="M0 119L22.8 115.5C45.7 112 91.3 105 137 98.7C182.7 92.3 228.3 86.7 274 89.5C319.7 92.3 365.3 103.7 411.2 110.3C457 117 503 119 548.8 118C594.7 117 640.3 113 686 115.8C731.7 118.7 777.3 128.3 823 129C868.7 129.7 914.3 121.3 937.2 117.2L960 113L960 0L937.2 0C914.3 0 868.7 0 823 0C777.3 0 731.7 0 686 0C640.3 0 594.7 0 548.8 0C503 0 457 0 411.2 0C365.3 0 319.7 0 274 0C228.3 0 182.7 0 137 0C91.3 0 45.7 0 22.8 0L0 0Z" fill="#b9efce"></path><path d="M0 63L22.8 64C45.7 65 91.3 67 137 69.5C182.7 72 228.3 75 274 71.8C319.7 68.7 365.3 59.3 411.2 60.7C457 62 503 74 548.8 81.7C594.7 89.3 640.3 92.7 686 89.5C731.7 86.3 777.3 76.7 823 75.5C868.7 74.3 914.3 81.7 937.2 85.3L960 89L960 0L937.2 0C914.3 0 868.7 0 823 0C777.3 0 731.7 0 686 0C640.3 0 594.7 0 548.8 0C503 0 457 0 411.2 0C365.3 0 319.7 0 274 0C228.3 0 182.7 0 137 0C91.3 0 45.7 0 22.8 0L0 0Z" fill="#94e6b6"></path><path d="M0 52L22.8 50.8C45.7 49.7 91.3 47.3 137 46C182.7 44.7 228.3 44.3 274 40.8C319.7 37.3 365.3 30.7 411.2 31.7C457 32.7 503 41.3 548.8 44.2C594.7 47 640.3 44 686 43.2C731.7 42.3 777.3 43.7 823 46.2C868.7 48.7 914.3 52.3 937.2 54.2L960 56L960 0L937.2 0C914.3 0 868.7 0 823 0C777.3 0 731.7 0 686 0C640.3 0 594.7 0 548.8 0C503 0 457 0 411.2 0C365.3 0 319.7 0 274 0C228.3 0 182.7 0 137 0C91.3 0 45.7 0 22.8 0L0 0Z" fill="#69dc9e"></path></svg>